<svg width="354" height="487" viewBox="0 0 354 487" fill="none" xmlns="http://www.w3.org/2000/svg">
<g filter="url(#filter0_d_1_256)">
<g filter="url(#filter1_d_1_256)">
<rect x="47.7014" y="132.779" width="446.018" height="79.8839" rx="4.36254" transform="rotate(-15 47.7014 132.779)" fill="#F4F3F6"/>
<path d="M146.864 155.199L142.464 138.778L154.079 135.666C154.135 135.875 154.198 136.143 154.269 136.469C154.334 136.78 154.397 137.108 154.455 137.455C154.525 137.781 154.577 138.104 154.611 138.422C154.644 138.741 154.649 139.016 154.625 139.247L147.428 141.175L148.425 144.894L154.8 143.186C154.856 143.395 154.919 143.663 154.989 143.989C155.055 144.299 155.117 144.628 155.176 144.974C155.246 145.301 155.298 145.623 155.331 145.942C155.365 146.261 155.37 146.536 155.345 146.767L149.357 148.371L150.897 154.119L146.864 155.199ZM157.901 146.755C157.543 145.418 157.418 144.244 157.527 143.232C157.651 142.215 157.96 141.338 158.453 140.602C158.946 139.866 159.602 139.259 160.423 138.78C161.24 138.285 162.171 137.898 163.217 137.617C163.958 137.419 164.697 137.247 165.434 137.101C166.188 136.951 166.952 136.807 167.725 136.668L170.961 148.742L167.097 149.778L166.204 146.445C166.128 147.19 165.999 147.837 165.818 148.386C165.649 148.915 165.435 149.369 165.174 149.749C164.909 150.114 164.599 150.404 164.243 150.62C163.887 150.836 163.499 151 163.081 151.113C162.485 151.272 161.919 151.286 161.383 151.153C160.847 151.021 160.356 150.764 159.909 150.384C159.462 150.003 159.069 149.504 158.731 148.887C158.394 148.271 158.117 147.56 157.901 146.755ZM163.861 147.746C164.247 147.642 164.544 147.399 164.752 147.015C164.976 146.628 165.125 146.122 165.2 145.498C165.27 144.858 165.285 144.112 165.247 143.259C165.208 142.407 165.128 141.462 165.005 140.425C164.771 140.454 164.523 140.494 164.261 140.547C164.011 140.58 163.765 140.628 163.524 140.693C162.413 140.991 161.699 141.449 161.382 142.069C161.077 142.669 161.047 143.427 161.293 144.345C161.431 144.86 161.595 145.342 161.784 145.792C161.969 146.225 162.174 146.602 162.398 146.922C162.637 147.237 162.882 147.473 163.131 147.631C163.376 147.772 163.619 147.811 163.861 147.746ZM177.272 133.851L177.852 133.696L176.493 128.625L180.357 127.59L185.016 144.976L181.152 146.012L180.259 142.679C180.183 143.424 180.054 144.071 179.873 144.62C179.704 145.149 179.489 145.603 179.229 145.983C178.964 146.348 178.654 146.638 178.298 146.854C177.942 147.07 177.554 147.234 177.136 147.347C176.54 147.506 175.974 147.52 175.438 147.387C174.902 147.255 174.411 146.998 173.964 146.618C173.517 146.237 173.124 145.738 172.786 145.121C172.449 144.505 172.172 143.794 171.956 142.989C171.598 141.652 171.473 140.478 171.582 139.466C171.706 138.449 172.015 137.572 172.508 136.836C173.001 136.1 173.657 135.493 174.478 135.014C175.295 134.519 176.226 134.132 177.272 133.851ZM175.348 140.579C175.486 141.094 175.65 141.576 175.839 142.026C176.024 142.459 176.229 142.836 176.453 143.156C176.692 143.471 176.937 143.707 177.186 143.865C177.431 144.006 177.674 144.045 177.916 143.98C178.302 143.876 178.599 143.633 178.807 143.249C179.031 142.862 179.18 142.356 179.255 141.732C179.325 141.092 179.34 140.346 179.302 139.493C179.263 138.641 179.183 137.696 179.06 136.659C178.826 136.688 178.578 136.728 178.316 136.781C178.066 136.814 177.82 136.862 177.579 136.927C176.468 137.224 175.754 137.683 175.437 138.303C175.132 138.903 175.102 139.661 175.348 140.579ZM187.938 144.193L183.28 126.807L187.143 125.771L189.473 134.465C189.545 133.703 189.663 133.05 189.828 132.506C190.009 131.957 190.231 131.501 190.496 131.136C190.777 130.768 191.095 130.475 191.452 130.259C191.82 130.022 192.221 129.846 192.656 129.729C193.09 129.613 193.536 129.571 193.994 129.604C194.467 129.632 194.92 129.778 195.353 130.042C195.782 130.289 196.181 130.683 196.55 131.222C196.914 131.746 197.217 132.458 197.459 133.36L199.529 141.087L195.666 142.123L193.835 135.289C193.602 134.419 193.343 133.807 193.058 133.452C192.769 133.081 192.35 132.969 191.803 133.116C191.336 133.241 191.011 133.604 190.827 134.205C190.643 134.807 190.571 135.568 190.61 136.489C190.646 137.394 190.766 138.423 190.972 139.576C191.193 140.724 191.47 141.918 191.802 143.158L187.938 144.193ZM200.268 134.419C199.984 133.356 199.897 132.388 200.007 131.512C200.118 130.637 200.386 129.867 200.811 129.201C201.248 128.514 201.829 127.944 202.553 127.492C203.273 127.023 204.1 126.663 205.034 126.413C206.869 125.921 208.415 126.059 209.674 126.826C210.948 127.589 211.854 128.976 212.394 130.989C212.318 131.544 212.163 132.06 211.929 132.537C210.367 132.955 208.996 133.314 207.817 133.613C206.633 133.895 205.531 134.096 204.51 134.214C204.841 134.936 205.301 135.46 205.889 135.786C206.472 136.095 207.247 136.121 208.212 135.862C209.162 135.607 209.987 135.335 210.685 135.044C211.4 134.749 211.981 134.473 212.43 134.214C212.486 134.424 212.534 134.669 212.576 134.952C212.633 135.23 212.674 135.512 212.699 135.799C212.736 136.065 212.757 136.335 212.761 136.61C212.778 136.865 212.777 137.089 212.76 137.283C212.376 137.524 211.859 137.784 211.209 138.061C210.575 138.335 209.839 138.584 209.002 138.808C206.732 139.416 204.845 139.361 203.341 138.643C201.853 137.92 200.829 136.512 200.268 134.419ZM204.123 132.868C204.844 132.468 205.534 132.145 206.193 131.9C206.848 131.638 207.567 131.393 208.352 131.166C208.064 130.415 207.708 129.889 207.282 129.589C206.857 129.289 206.314 129.227 205.654 129.404C204.962 129.59 204.481 129.986 204.212 130.593C203.955 131.179 203.926 131.938 204.123 132.868ZM211.767 119.173L215.631 118.138L220.289 135.525L216.426 136.56L211.767 119.173Z" fill="#060710"/>
<circle cx="101.764" cy="159.644" r="23.9652" transform="rotate(-15 101.764 159.644)" fill="#EDE8E3"/>
<path d="M96.5248 149.897L99.1569 149.192C99.7687 149.028 100.299 148.946 100.748 148.947C101.192 148.931 101.596 149.022 101.959 149.218C102.338 149.409 102.707 149.724 103.067 150.163C103.421 150.586 103.821 151.143 104.265 151.835L111.631 163.579L107.574 164.666L105.174 160.831L100.2 162.164L100.16 166.652L96.1757 167.72L96.5248 149.897ZM100.207 159.004L103.467 158.131L100.382 153.186L100.262 153.218L100.207 159.004Z" fill="#060710"/>
</g>
<rect x="62.1372" y="377.016" width="495.287" height="88.7082" rx="4.84444" transform="rotate(-15 62.1372 377.016)" fill="#45C486"/>
<path d="M172.721 399.689L168.321 383.268L172.354 382.188L174.554 390.398L178.801 380.46L183.269 379.263L179.137 388.86L187.693 395.678C187.492 395.766 187.255 395.847 186.981 395.92C186.728 396.005 186.467 396.092 186.197 396.182C185.944 396.267 185.705 396.34 185.479 396.4C185.254 396.46 185.077 396.508 184.948 396.542C184.497 396.663 184.11 396.732 183.787 396.75C183.464 396.767 183.173 396.742 182.913 396.674C182.653 396.605 182.411 396.506 182.186 396.377C181.973 396.227 181.748 396.063 181.511 395.885L174.554 390.398L176.754 398.609L172.721 399.689ZM186.541 390.499C186.183 389.163 186.058 387.989 186.166 386.976C186.291 385.959 186.599 385.083 187.092 384.347C187.585 383.611 188.242 383.003 189.063 382.525C189.879 382.03 190.811 381.642 191.857 381.362C192.598 381.163 193.337 380.991 194.074 380.846C194.828 380.695 195.591 380.551 196.365 380.413L199.6 392.487L195.737 393.522L194.844 390.19C194.767 390.935 194.639 391.582 194.458 392.131C194.289 392.659 194.074 393.113 193.814 393.494C193.549 393.858 193.239 394.148 192.882 394.365C192.526 394.581 192.139 394.745 191.72 394.857C191.125 395.017 190.559 395.03 190.023 394.898C189.487 394.765 188.996 394.509 188.549 394.128C188.102 393.748 187.709 393.249 187.371 392.632C187.033 392.015 186.757 391.304 186.541 390.499ZM192.501 391.49C192.887 391.387 193.184 391.143 193.392 390.76C193.616 390.372 193.765 389.866 193.839 389.242C193.909 388.602 193.925 387.856 193.887 387.004C193.848 386.151 193.767 385.207 193.645 384.17C193.411 384.198 193.163 384.239 192.901 384.292C192.651 384.324 192.405 384.373 192.164 384.437C191.053 384.735 190.339 385.194 190.022 385.814C189.717 386.413 189.687 387.172 189.933 388.089C190.071 388.604 190.235 389.087 190.424 389.536C190.609 389.97 190.814 390.346 191.037 390.666C191.277 390.981 191.522 391.218 191.771 391.375C192.016 391.517 192.259 391.555 192.501 391.49ZM205.912 377.596L206.492 377.441L205.133 372.369L208.997 371.334L213.655 388.721L209.792 389.756L208.899 386.424C208.822 387.169 208.694 387.816 208.513 388.365C208.344 388.893 208.129 389.347 207.869 389.728C207.604 390.092 207.294 390.382 206.937 390.599C206.581 390.815 206.194 390.979 205.775 391.091C205.18 391.251 204.614 391.264 204.078 391.132C203.542 390.999 203.051 390.743 202.604 390.362C202.157 389.982 201.764 389.483 201.426 388.866C201.088 388.249 200.812 387.538 200.596 386.733C200.238 385.397 200.113 384.223 200.221 383.21C200.346 382.193 200.654 381.317 201.147 380.581C201.64 379.845 202.297 379.237 203.118 378.759C203.934 378.264 204.866 377.876 205.912 377.596ZM203.988 384.323C204.126 384.838 204.29 385.321 204.479 385.77C204.664 386.204 204.869 386.58 205.092 386.9C205.332 387.215 205.577 387.452 205.826 387.609C206.071 387.751 206.314 387.789 206.556 387.724C206.942 387.621 207.239 387.377 207.447 386.994C207.671 386.606 207.82 386.1 207.894 385.476C207.964 384.836 207.98 384.09 207.942 383.238C207.903 382.385 207.822 381.441 207.7 380.404C207.466 380.432 207.218 380.473 206.956 380.526C206.706 380.558 206.46 380.607 206.219 380.671C205.108 380.969 204.394 381.428 204.077 382.048C203.772 382.647 203.742 383.406 203.988 384.323ZM214.405 382.05C214.12 380.987 214.033 380.018 214.144 379.143C214.254 378.268 214.522 377.497 214.948 376.831C215.385 376.145 215.966 375.575 216.69 375.122C217.41 374.653 218.237 374.294 219.17 374.043C221.006 373.552 222.552 373.689 223.81 374.457C225.084 375.219 225.991 376.607 226.53 378.619C226.455 379.174 226.3 379.691 226.065 380.167C224.504 380.586 223.133 380.945 221.954 381.243C220.77 381.526 219.667 381.726 218.647 381.845C218.978 382.567 219.438 383.091 220.025 383.416C220.609 383.726 221.383 383.751 222.349 383.493C223.299 383.238 224.123 382.965 224.822 382.675C225.536 382.38 226.118 382.103 226.566 381.845C226.623 382.054 226.671 382.3 226.712 382.582C226.77 382.86 226.811 383.143 226.836 383.429C226.872 383.695 226.893 383.966 226.898 384.241C226.914 384.495 226.914 384.72 226.897 384.914C226.513 385.155 225.996 385.414 225.346 385.692C224.711 385.965 223.976 386.214 223.139 386.439C220.869 387.047 218.982 386.992 217.478 386.273C215.99 385.55 214.966 384.142 214.405 382.05ZM218.26 380.499C218.981 380.099 219.671 379.776 220.33 379.53C220.984 379.269 221.704 379.024 222.489 378.796C222.201 378.045 221.844 377.52 221.419 377.22C220.993 376.919 220.451 376.858 219.791 377.035C219.098 377.22 218.618 377.616 218.349 378.223C218.092 378.81 218.062 379.568 218.26 380.499ZM230.853 371.172C231.185 371.963 231.462 372.674 231.683 373.305C231.916 373.915 232.122 374.559 232.304 375.235C232.523 373.606 232.954 372.317 233.597 371.368C234.252 370.399 235.022 369.796 235.907 369.559C236.151 370.08 236.389 370.681 236.623 371.36C236.852 372.023 237.053 372.677 237.226 373.321C236.244 373.584 235.457 373.898 234.865 374.264C234.289 374.625 233.874 375.107 233.622 375.71C233.381 376.292 233.286 377.033 233.338 377.934C233.405 378.831 233.602 379.951 233.928 381.296L234.426 383.155L230.562 384.191L228.492 376.463C228.263 375.61 228.028 374.862 227.787 374.219C227.562 373.572 227.328 372.893 227.086 372.181L230.853 371.172Z" fill="#F4F3F6"/>
<circle cx="122.172" cy="406.849" r="26.6125" transform="rotate(-15 122.172 406.849)" fill="#F4F3F6"/>
<path d="M129.922 397.441C129.753 397.342 129.566 397.278 129.373 397.253C129.18 397.227 128.983 397.239 128.794 397.29C128.606 397.34 128.429 397.428 128.275 397.547C128.12 397.666 127.991 397.815 127.894 397.984L120.109 411.488L114.437 408.202C114.264 408.106 114.073 408.045 113.876 408.022C113.679 408 113.479 408.016 113.289 408.071C113.098 408.125 112.92 408.217 112.764 408.341C112.609 408.464 112.48 408.617 112.383 408.79C112.287 408.964 112.226 409.155 112.204 409.352C112.181 409.549 112.198 409.749 112.252 409.939C112.307 410.13 112.399 410.308 112.522 410.464C112.646 410.619 112.799 410.748 112.972 410.845L119.925 414.859C120.094 414.957 120.28 415.021 120.474 415.047C120.667 415.073 120.864 415.06 121.053 415.01C121.241 414.959 121.418 414.872 121.572 414.753C121.727 414.634 121.856 414.485 121.953 414.316L130.484 399.54C130.593 399.367 130.665 399.174 130.696 398.972C130.727 398.77 130.715 398.564 130.663 398.367C130.61 398.17 130.517 397.986 130.389 397.826C130.261 397.667 130.102 397.536 129.922 397.441Z" fill="#31CD63"/>
<rect x="78.7148" y="248.522" width="446.018" height="79.8839" rx="4.36254" transform="rotate(-15 78.7148 248.522)" fill="#F4F3F6"/>
<path d="M181.426 266.704C182.135 266.514 182.695 266.321 183.108 266.124C183.538 265.923 183.853 265.717 184.056 265.508C184.271 265.278 184.398 265.045 184.439 264.81C184.479 264.575 184.467 264.336 184.402 264.095C184.307 263.741 184.113 263.499 183.82 263.371C183.527 263.242 183.162 263.168 182.725 263.147C182.304 263.122 181.825 263.138 181.288 263.195C180.763 263.232 180.22 263.266 179.659 263.295C179.109 263.305 178.551 263.282 177.984 263.227C177.429 263.151 176.902 262.99 176.405 262.744C175.924 262.493 175.491 262.134 175.107 261.668C174.719 261.185 174.417 260.541 174.202 259.737C173.939 258.755 173.888 257.888 174.049 257.138C174.222 256.367 174.566 255.688 175.082 255.101C175.598 254.514 176.274 254.013 177.112 253.599C177.962 253.164 178.934 252.8 180.029 252.507C180.85 252.287 181.654 252.132 182.441 252.042C183.24 251.931 183.944 251.889 184.555 251.915C184.706 252.479 184.82 253.095 184.896 253.765C184.983 254.415 184.98 254.95 184.886 255.372C184.158 255.36 183.435 255.399 182.717 255.488C182.015 255.572 181.35 255.699 180.722 255.867C179.628 256.16 178.881 256.498 178.484 256.881C178.097 257.243 177.971 257.674 178.105 258.173C178.221 258.608 178.517 258.874 178.992 258.971C179.466 259.068 180.029 259.107 180.679 259.088C181.346 259.065 182.063 259.036 182.831 259.003C183.615 258.966 184.36 259.042 185.066 259.232C185.785 259.402 186.437 259.745 187.024 260.261C187.607 260.76 188.038 261.533 188.319 262.58C188.577 263.546 188.622 264.422 188.454 265.209C188.281 265.98 187.933 266.678 187.409 267.301C186.882 267.908 186.196 268.437 185.35 268.888C184.516 269.318 183.552 269.68 182.458 269.974C182.055 270.081 181.6 270.186 181.092 270.288C180.605 270.401 180.121 270.496 179.642 270.573C179.178 270.645 178.744 270.701 178.341 270.74C177.949 270.759 177.651 270.744 177.448 270.695C177.324 270.486 177.192 270.254 177.055 269.998C176.913 269.725 176.776 269.443 176.646 269.15C176.532 268.852 176.42 268.563 176.31 268.282C176.196 267.985 176.096 267.709 176.011 267.456C176.307 267.463 176.674 267.451 177.114 267.419C177.555 267.388 178.017 267.342 178.501 267.281C178.981 267.204 179.476 267.123 179.988 267.038C180.496 266.936 180.975 266.825 181.426 266.704ZM195.41 253.044L195.989 252.889L194.631 247.818L198.494 246.783L203.153 264.169L199.289 265.205L198.396 261.872C198.32 262.617 198.191 263.264 198.011 263.813C197.842 264.342 197.627 264.796 197.367 265.176C197.102 265.541 196.791 265.831 196.435 266.047C196.079 266.263 195.692 266.428 195.273 266.54C194.677 266.699 194.112 266.713 193.576 266.58C193.04 266.448 192.548 266.191 192.101 265.811C191.654 265.43 191.262 264.931 190.924 264.314C190.586 263.698 190.309 262.987 190.094 262.182C189.736 260.846 189.611 259.671 189.719 258.659C189.843 257.642 190.152 256.765 190.645 256.029C191.138 255.293 191.795 254.686 192.616 254.207C193.432 253.712 194.363 253.325 195.41 253.044ZM193.485 259.772C193.623 260.287 193.787 260.769 193.977 261.219C194.162 261.652 194.366 262.029 194.59 262.349C194.83 262.664 195.074 262.9 195.324 263.058C195.569 263.199 195.812 263.238 196.053 263.173C196.44 263.07 196.737 262.826 196.945 262.442C197.168 262.055 197.318 261.549 197.392 260.925C197.462 260.285 197.478 259.539 197.439 258.686C197.401 257.834 197.32 256.889 197.198 255.852C196.964 255.881 196.716 255.921 196.454 255.974C196.204 256.007 195.958 256.055 195.716 256.12C194.605 256.418 193.892 256.876 193.574 257.496C193.269 258.096 193.24 258.854 193.485 259.772ZM206.076 263.386L202.84 251.312L206.704 250.277L209.939 262.351L206.076 263.386ZM201.519 248.12C201.734 247.632 202.004 247.128 202.331 246.609C202.653 246.074 202.969 245.61 203.278 245.216C203.742 245.403 204.239 245.649 204.77 245.955C205.317 246.257 205.803 246.559 206.228 246.859C206.01 247.331 205.741 247.843 205.423 248.394C205.101 248.929 204.791 249.383 204.494 249.756C204.046 249.566 203.543 249.33 202.984 249.048C202.438 248.746 201.949 248.437 201.519 248.12ZM216.233 247.465L216.812 247.31L215.454 242.239L219.317 241.203L223.976 258.59L220.112 259.625L219.219 256.293C219.143 257.038 219.014 257.685 218.834 258.234C218.665 258.762 218.45 259.217 218.19 259.597C217.925 259.961 217.614 260.251 217.258 260.468C216.902 260.684 216.515 260.848 216.096 260.96C215.5 261.12 214.935 261.133 214.399 261.001C213.863 260.868 213.371 260.612 212.924 260.231C212.477 259.851 212.085 259.352 211.747 258.735C211.409 258.118 211.132 257.407 210.917 256.602C210.559 255.266 210.434 254.092 210.542 253.079C210.666 252.062 210.975 251.186 211.468 250.45C211.961 249.714 212.618 249.106 213.439 248.628C214.255 248.133 215.186 247.745 216.233 247.465ZM214.308 254.192C214.447 254.707 214.61 255.19 214.8 255.639C214.985 256.073 215.189 256.449 215.413 256.769C215.653 257.084 215.897 257.321 216.147 257.478C216.392 257.62 216.635 257.658 216.876 257.594C217.263 257.49 217.56 257.246 217.768 256.863C217.992 256.475 218.141 255.969 218.215 255.345C218.285 254.705 218.301 253.959 218.262 253.107C218.224 252.255 218.143 251.31 218.021 250.273C217.787 250.301 217.539 250.342 217.277 250.395C217.027 250.427 216.781 250.476 216.539 250.54C215.429 250.838 214.715 251.297 214.398 251.917C214.092 252.516 214.063 253.275 214.308 254.192ZM224.726 251.919C224.441 250.856 224.354 249.887 224.465 249.012C224.575 248.137 224.843 247.366 225.269 246.7C225.706 246.014 226.287 245.444 227.011 244.991C227.73 244.522 228.557 244.163 229.491 243.912C231.326 243.421 232.873 243.558 234.131 244.326C235.405 245.088 236.312 246.476 236.851 248.488C236.776 249.044 236.621 249.56 236.386 250.037C234.824 250.455 233.454 250.814 232.274 251.112C231.09 251.395 229.988 251.596 228.967 251.714C229.299 252.436 229.758 252.96 230.346 253.285C230.929 253.595 231.704 253.62 232.67 253.362C233.62 253.107 234.444 252.835 235.143 252.544C235.857 252.249 236.439 251.972 236.887 251.714C236.943 251.923 236.992 252.169 237.033 252.451C237.09 252.729 237.131 253.012 237.156 253.298C237.193 253.564 237.214 253.835 237.219 254.11C237.235 254.364 237.235 254.589 237.218 254.783C236.834 255.024 236.317 255.283 235.666 255.561C235.032 255.834 234.296 256.083 233.459 256.308C231.189 256.916 229.303 256.861 227.799 256.142C226.311 255.419 225.287 254.011 224.726 251.919ZM228.581 250.368C229.302 249.968 229.992 249.645 230.651 249.399C231.305 249.138 232.025 248.893 232.809 248.666C232.522 247.914 232.165 247.389 231.74 247.089C231.314 246.789 230.771 246.727 230.111 246.904C229.419 247.089 228.939 247.485 228.67 248.092C228.413 248.679 228.383 249.437 228.581 250.368ZM244.747 253.024L240.883 254.06L236.224 236.673L240.088 235.638L243.116 246.939L245.762 239.812L249.939 238.692L247.313 245.504L253.15 250.773C252.966 250.857 252.745 250.933 252.487 251.002C252.25 251.083 252.013 251.164 251.776 251.245C251.538 251.325 251.315 251.394 251.106 251.45C250.897 251.506 250.728 251.551 250.599 251.586C250.212 251.689 249.866 251.748 249.559 251.761C249.256 251.79 248.977 251.779 248.721 251.727C248.477 251.654 248.249 251.542 248.036 251.392C247.824 251.242 247.598 251.044 247.359 250.797L243.116 246.939L244.747 253.024Z" fill="#060710"/>
<circle cx="132.778" cy="275.387" r="23.9652" transform="rotate(-15 132.778 275.387)" fill="#EDE8E3"/>
<path d="M131.458 264.719C132.295 264.495 133.066 264.409 133.771 264.462C134.487 264.494 135.124 264.652 135.683 264.933C136.237 265.199 136.708 265.573 137.096 266.056C137.484 266.538 137.767 267.11 137.944 267.77C138.134 268.478 138.149 269.181 137.991 269.879C137.849 270.573 137.524 271.195 137.016 271.745C137.952 271.891 138.727 272.27 139.34 272.883C139.964 273.474 140.386 274.181 140.606 275.002C140.783 275.662 140.845 276.31 140.791 276.945C140.732 277.565 140.544 278.15 140.226 278.701C139.903 279.237 139.444 279.713 138.849 280.132C138.27 280.546 137.529 280.873 136.628 281.115C135.726 281.356 134.917 281.427 134.2 281.326C133.482 281.224 132.747 280.895 131.994 280.338L132.453 282.052L128.421 283.133L124.021 266.712L131.458 264.719ZM130.655 275.339L131.567 278.744L134.851 277.864C135.495 277.692 135.937 277.409 136.177 277.017C136.433 276.621 136.488 276.149 136.341 275.601C136.194 275.054 135.907 274.691 135.48 274.512C135.064 274.313 134.575 274.289 134.011 274.44L130.655 275.339ZM129.813 272.2L132.615 271.449C133.178 271.298 133.59 271.033 133.85 270.652C134.111 270.272 134.17 269.816 134.028 269.285C133.881 268.738 133.596 268.383 133.173 268.22C132.75 268.057 132.248 268.053 131.669 268.209L128.94 268.94L129.813 272.2Z" fill="#060710"/>
</g>
<defs>
<filter id="filter0_d_1_256" x="27.3335" y="0.530898" width="556.434" height="485.989" filterUnits="userSpaceOnUse" color-interpolation-filters="sRGB">
<feFlood flood-opacity="0" result="BackgroundImageFix"/>
<feColorMatrix in="SourceAlpha" type="matrix" values="0 0 0 0 0 0 0 0 0 0 0 0 0 0 0 0 0 0 127 0" result="hardAlpha"/>
<feOffset dy="3.55788"/>
<feGaussianBlur stdDeviation="10.6736"/>
<feComposite in2="hardAlpha" operator="out"/>
<feColorMatrix type="matrix" values="0 0 0 0 0.615686 0 0 0 0 0.533333 0 0 0 0 0.662745 0 0 0 0.51 0"/>
<feBlend mode="normal" in2="BackgroundImageFix" result="effect1_dropShadow_1_256"/>
<feBlend mode="normal" in="SourceGraphic" in2="effect1_dropShadow_1_256" result="shape"/>
</filter>
<filter id="filter1_d_1_256" x="26.6808" y="0.320282" width="493.537" height="234.641" filterUnits="userSpaceOnUse" color-interpolation-filters="sRGB">
<feFlood flood-opacity="0" result="BackgroundImageFix"/>
<feColorMatrix in="SourceAlpha" type="matrix" values="0 0 0 0 0 0 0 0 0 0 0 0 0 0 0 0 0 0 127 0" result="hardAlpha"/>
<feOffset dy="4"/>
<feGaussianBlur stdDeviation="11"/>
<feComposite in2="hardAlpha" operator="out"/>
<feColorMatrix type="matrix" values="0 0 0 0 0.65 0 0 0 0 0.60125 0 0 0 0 0.5525 0 0 0 0.26 0"/>
<feBlend mode="normal" in2="BackgroundImageFix" result="effect1_dropShadow_1_256"/>
<feBlend mode="normal" in="SourceGraphic" in2="effect1_dropShadow_1_256" result="shape"/>
</filter>
</defs>
</svg>
