<svg width="1107" height="243" viewBox="0 0 1107 243" fill="none" xmlns="http://www.w3.org/2000/svg">
<path opacity="0.2" d="M19.5429 172.178C37.0634 198.558 88.8443 202.636 110.838 186.885C142.054 164.528 140.328 105.438 172.753 84.4992C232.371 46.029 305.223 151.679 351.31 46.7105V242.854H19.5429V172.178Z" fill="#92E3A9"/>
<path d="M75.6214 196.59C70.0031 196.589 64.3964 196.077 58.8704 195.063C40.7564 191.765 26.6434 183.708 19.1582 172.442C19.1093 172.339 19.0991 172.222 19.1296 172.113C19.1601 172.003 19.2292 171.908 19.3241 171.845C19.419 171.782 19.5335 171.756 19.6463 171.77C19.7592 171.785 19.863 171.84 19.9385 171.925C27.1819 182.818 41.4269 190.919 59.0353 194.139C78.8199 197.766 99.0223 194.766 110.563 186.5C125.776 175.608 133.261 155.526 140.493 136.104C148.044 115.825 155.881 94.8531 172.5 84.1035C197.077 68.2317 223.963 76.7062 249.979 84.8948C287.944 96.8646 323.82 108.164 350.881 46.5235C350.941 46.4272 351.034 46.3557 351.142 46.322C351.251 46.2883 351.367 46.2947 351.471 46.3401C351.575 46.3854 351.66 46.4666 351.709 46.5689C351.758 46.6712 351.768 46.7878 351.739 46.8973C339.263 75.2993 324.26 90.3246 304.574 94.1607C287.208 97.568 268.984 91.8305 249.694 85.7522C223.897 77.6295 197.209 69.2649 173.006 84.8619C156.629 95.4357 148.825 116.254 141.362 136.401C134.085 155.955 126.545 176.168 111.113 187.237C102.671 193.304 89.6905 196.59 75.6214 196.59Z" fill="#92E3A9"/>
<path d="M47.0326 147.228H0V242.853H47.0326V147.228Z" fill="#92E3A9"/>
<path opacity="0.3" d="M47.0326 147.228H0V242.853H47.0326V147.228Z" fill="black"/>
<path d="M124.457 177.883H77.424V242.854H124.457V177.883Z" fill="#92E3A9"/>
<path opacity="0.3" d="M124.457 177.883H77.424V242.854H124.457V177.883Z" fill="black"/>
<path d="M201.881 122.991H154.848V242.854H201.881V122.991Z" fill="#92E3A9"/>
<path opacity="0.3" d="M201.881 122.991H154.848V242.854H201.881V122.991Z" fill="black"/>
<path d="M279.294 57.1304H232.261V242.854H279.294V57.1304Z" fill="#92E3A9"/>
<path opacity="0.3" d="M279.294 57.1304H232.261V242.854H279.294V57.1304Z" fill="black"/>
<path d="M357.083 43.9911H309.658V242.061H357.083V43.9911Z" fill="#92E3A9"/>
<path opacity="0.3" d="M357.083 43.9911H309.658V242.061H357.083V43.9911Z" fill="black"/>
<path d="M59.5188 147.228H12.4862V242.853H59.5188V147.228Z" fill="#92E3A9"/>
<path opacity="0.1" d="M59.5188 147.228H12.4862V242.853H59.5188V147.228Z" fill="black"/>
<path d="M136.943 177.883H89.9104V242.854H136.943V177.883Z" fill="#92E3A9"/>
<path opacity="0.1" d="M136.943 177.883H89.9104V242.854H136.943V177.883Z" fill="black"/>
<path d="M214.356 122.991H167.324V242.854H214.356V122.991Z" fill="#92E3A9"/>
<path opacity="0.1" d="M214.356 122.991H167.324V242.854H214.356V122.991Z" fill="black"/>
<path d="M291.78 57.1304H244.748V242.854H291.78V57.1304Z" fill="#92E3A9"/>
<path d="M1213.53 242.061V45.0471C1213.53 45.0471 889.92 182.627 746.094 104.17C602.269 25.7127 320.817 43.9911 320.817 43.9911V242.061H1213.53Z" fill="url(#paint0_linear_1_182)"/>
<path d="M272.248 4.72289C269.227 1.69991 265.128 0.00103112 260.854 4.69221e-07C256.58 -0.00103018 252.48 1.69586 249.457 4.71739C246.434 7.73891 244.736 11.8376 244.734 16.1117C244.733 20.3858 246.43 24.4853 249.452 27.5082L260.85 38.8954L272.237 27.4973C273.734 26.0027 274.921 24.228 275.731 22.2746C276.541 20.3211 276.959 18.2272 276.96 16.1123C276.961 13.9975 276.545 11.9032 275.737 9.94894C274.929 7.99473 273.743 6.2189 272.248 4.72289Z" fill="#92E3A9"/>
<path opacity="0.1" d="M272.248 4.72289C269.227 1.69991 265.128 0.00103112 260.854 4.69221e-07C256.58 -0.00103018 252.48 1.69586 249.457 4.71739C246.434 7.73891 244.736 11.8376 244.734 16.1117C244.733 20.3858 246.43 24.4853 249.452 27.5082L260.85 38.8954L272.237 27.4973C273.734 26.0027 274.921 24.228 275.731 22.2746C276.541 20.3211 276.959 18.2272 276.96 16.1123C276.961 13.9975 276.545 11.9032 275.737 9.94894C274.929 7.99473 273.743 6.2189 272.248 4.72289Z" fill="black"/>
<defs>
<linearGradient id="paint0_linear_1_182" x1="320.659" y1="208.897" x2="775.214" y2="-7.95644" gradientUnits="userSpaceOnUse">
<stop stop-color="#92E3A9"/>
<stop offset="1" stop-color="#92E3A9" stop-opacity="0"/>
</linearGradient>
</defs>
</svg>
